<?xml version="1.0" encoding="UTF-8" standalone="no"?>
<!DOCTYPE svg PUBLIC "-//W3C//DTD SVG 1.1//EN"
 "http://www.w3.org/Graphics/SVG/1.1/DTD/svg11.dtd">
<!-- Generated by graphviz version 2.40.1 (20161225.0304)
 -->
<!-- Title: G Pages: 1 -->
<svg width="322pt" height="223pt"
 viewBox="0.00 0.00 322.28 223.12" xmlns="http://www.w3.org/2000/svg" xmlns:xlink="http://www.w3.org/1999/xlink">
<g id="graph0" class="graph" transform="scale(1 1) rotate(0) translate(4 219.1233)">
<title>G</title>
<!-- C -->
<g id="node1" class="node">
<title>C</title>
<ellipse fill="#cd0000" stroke="#000000" cx="107.5617" cy="-187.9704" rx="27.3067" ry="27.3067"/>
<text text-anchor="middle" x="107.5617" y="-178.3704" font-family="Times,serif" font-size="32.00" fill="#000000">C</text>
</g>
<!-- D -->
<g id="node5" class="node">
<title>D</title>
<ellipse fill="#ffffff" stroke="#000000" cx="187.9704" cy="-107.5617" rx="27.3067" ry="27.3067"/>
<text text-anchor="middle" x="187.9704" y="-97.9617" font-family="Times,serif" font-size="32.00" fill="#000000">D</text>
</g>
<!-- C&#45;&#45;D -->
<g id="edge5" class="edge">
<title>C&#45;&#45;D</title>
<path fill="none" stroke="#000000" d="M127.0264,-168.5057C139.6687,-155.8635 156.0785,-139.4536 168.685,-126.8471"/>
</g>
<!-- E -->
<g id="node2" class="node">
<title>E</title>
<ellipse fill="#cd0000" stroke="#000000" cx="287.1233" cy="-107.5617" rx="27.3067" ry="27.3067"/>
<text text-anchor="middle" x="287.1233" y="-97.9617" font-family="Times,serif" font-size="32.00" fill="#000000">E</text>
</g>
<!-- A -->
<g id="node3" class="node">
<title>A</title>
<ellipse fill="#ffffff" stroke="#000000" cx="107.5617" cy="-27.1529" rx="27.3067" ry="27.3067"/>
<text text-anchor="middle" x="107.5617" y="-17.5529" font-family="Times,serif" font-size="32.00" fill="#000000">A</text>
</g>
<!-- A&#45;&#45;C -->
<g id="edge2" class="edge">
<title>A&#45;&#45;C</title>
<path fill="none" stroke="#000000" d="M107.5617,-54.4334C107.5617,-84.0058 107.5617,-130.9315 107.5617,-160.5561"/>
</g>
<!-- B -->
<g id="node4" class="node">
<title>B</title>
<ellipse fill="#ffffff" stroke="#000000" cx="27.1529" cy="-107.5617" rx="27.3067" ry="27.3067"/>
<text text-anchor="middle" x="27.1529" y="-97.9617" font-family="Times,serif" font-size="32.00" fill="#000000">B</text>
</g>
<!-- A&#45;&#45;B -->
<g id="edge1" class="edge">
<title>A&#45;&#45;B</title>
<path fill="none" stroke="#000000" d="M88.097,-46.6176C75.4547,-59.2599 59.0448,-75.6698 46.4384,-88.2762"/>
</g>
<!-- A&#45;&#45;D -->
<g id="edge3" class="edge">
<title>A&#45;&#45;D</title>
<path fill="none" stroke="#000000" d="M127.0264,-46.6176C139.6687,-59.2599 156.0785,-75.6698 168.685,-88.2762"/>
</g>
<!-- B&#45;&#45;C -->
<g id="edge4" class="edge">
<title>B&#45;&#45;C</title>
<path fill="none" stroke="#000000" d="M46.6176,-127.0264C59.2599,-139.6687 75.6698,-156.0785 88.2762,-168.685"/>
</g>
<!-- D&#45;&#45;E -->
<g id="edge6" class="edge">
<title>D&#45;&#45;E</title>
<path fill="none" stroke="#000000" d="M215.3269,-107.5617C229.1987,-107.5617 245.9969,-107.5617 259.8562,-107.5617"/>
</g>
</g>
</svg>
